<?xml version="1.0" encoding="iso-8859-1"?>
<!-- Generator: Adobe Illustrator 19.0.0, SVG Export Plug-In . SVG Version: 6.00 Build 0)  -->
<svg version="1.1" id="Capa_1" xmlns="http://www.w3.org/2000/svg" xmlns:xlink="http://www.w3.org/1999/xlink" x="0px" y="0px"
	 viewBox="0 0 372.188 372.188" style="enable-background:new 0 0 372.188 372.188;" xml:space="preserve">
<path style="fill:#53AADF;" d="M130.585,169.98c-66.63,0-120.5-19.53-120.5-43.65v82.72c0,24.12,53.955,43.65,120.585,43.65
	c14.271,0.026,28.528-0.916,42.672-2.82l77.743-62.97v-60.58C251.085,150.45,197.225,169.98,130.585,169.98z"/>
<path style="fill:#00ACEA;" d="M251.255,43.665v82.72c0,24.12-53.99,43.65-120.63,43.65s-120.63-19.53-120.63-43.65v-82.72
	c0,24.11,54.01,43.66,120.63,43.66S251.255,67.775,251.255,43.665z"/>
<ellipse style="fill:#00EFD1;" cx="130.625" cy="43.66" rx="120.63" ry="43.66"/>
<path style="fill:#00ACEA;" d="M173.405,249.88c-14.165,1.904-28.443,2.846-42.735,2.82c-66.63,0-120.585-19.53-120.585-43.65v83.29
	c0,24.12,53.955,43.66,120.585,43.66c18.927,0.082,37.819-1.615,56.428-5.07L173.405,249.88z"/>
<g>
	<path style="fill:#D4E1F4;" d="M151.085,137.095h-40c-5.523,0-10-4.477-10-10s4.477-10,10-10h40c5.523,0,10,4.477,10,10
		S156.608,137.095,151.085,137.095z"/>
	<path style="fill:#D4E1F4;" d="M151.085,219.095h-40c-5.523,0-10-4.477-10-10s4.477-10,10-10h40c5.523,0,10,4.477,10,10
		S156.608,219.095,151.085,219.095z"/>
	<path style="fill:#D4E1F4;" d="M151.085,303.095h-40c-5.523,0-10-4.477-10-10c0-5.523,4.477-10,10-10h40c5.523,0,10,4.477,10,10
		C161.085,298.618,156.608,303.095,151.085,303.095z"/>
</g>
<path style="fill:#00EFD1;" d="M251.255,180.965c52.49-8.144,101.644,27.805,109.788,80.295
	c8.144,52.49-27.805,101.644-80.295,109.788c-36.311,5.634-72.658-9.914-93.663-40.064h-0.01
	c-30.367-43.574-19.661-103.516,23.913-133.883C223.006,188.726,236.779,183.207,251.255,180.965L251.255,180.965z"/>
<path style="fill:#00ACEA;" d="M304.285,259.869l-31.48-29.29c-3.839-3.573-9.786-3.573-13.625,0l-31.47,29.29
	c-4.043,3.776-4.259,10.115-0.483,14.158c3.776,4.043,10.115,4.259,14.158,0.483l14.7-13.642v53.142c0,5.523,4.477,10,10,10
	s10-4.477,10-10v-53.146l14.623,13.647c3.991,3.806,10.311,3.656,14.117-0.335s3.656-10.311-0.335-14.117
	C304.422,259.995,304.354,259.931,304.285,259.869L304.285,259.869z"/>
<g>
</g>
<g>
</g>
<g>
</g>
<g>
</g>
<g>
</g>
<g>
</g>
<g>
</g>
<g>
</g>
<g>
</g>
<g>
</g>
<g>
</g>
<g>
</g>
<g>
</g>
<g>
</g>
<g>
</g>
</svg>
